<?xml version="1.0" encoding="utf-8"?>
<!-- Generator: Adobe Illustrator 24.1.1, SVG Export Plug-In . SVG Version: 6.00 Build 0)  -->
<svg version="1.1" id="Camada_1" xmlns="http://www.w3.org/2000/svg" xmlns:xlink="http://www.w3.org/1999/xlink" x="0px" y="0px"
	 viewBox="0 0 640 200" style="enable-background:new 0 0 640 200;" xml:space="preserve">
<style type="text/css">
	.st0{fill:none;}
	.st1{fill:#FECE2A;}
	.st2{fill:#151515;}
</style>
<g>
	<path class="st0" d="M518.9,94.5c-1.9-1.7-4.3-2.5-7.1-2.5c-3.1,0-5.5,0.9-7.2,2.6c-1.7,1.8-2.8,4.1-3.2,7.1h20.7
		C521.9,98.6,520.8,96.1,518.9,94.5z"/>
	<path class="st0" d="M408.4,94.5c-1.9-1.7-4.3-2.5-7.1-2.5c-3.1,0-5.5,0.9-7.2,2.6c-1.7,1.8-2.8,4.1-3.2,7.1h20.7
		C411.4,98.6,410.3,96.1,408.4,94.5z"/>
	<path class="st0" d="M249,77.9h-12v40.6h12c6.1,0,10.4-3,12.9-9.1c1.3-3.3,2-7.3,2-11.9c0-6.3-1-11.2-3-14.6
		C258.9,79.6,255,77.9,249,77.9z"/>
	<path class="st0" d="M312.2,94.5c-1.9-1.7-4.3-2.5-7.1-2.5c-3.1,0-5.5,0.9-7.2,2.6c-1.7,1.8-2.8,4.1-3.2,7.1h20.7
		C315.2,98.6,314.1,96.1,312.2,94.5z"/>
	<path class="st1" d="M87.3,67.4c17.5-3.6,34.4-2,50.6,5.9c8.1,4,16,8.4,24.5,11.5c6.7,2.5,13.5,4.5,20.7,4.7
		c0-12.1,0-24.2,0.1-36.4c0-3-0.3-5.9-1-8.8c-4.2-17.9-19.3-31.2-38-31.2c-32.4,0-64.8,0-97.2,0c-3.7,0-7.4,0.5-11,1.6
		C19.8,20,8.6,34.3,8,51.8C7.5,65.8,7.9,79.7,7.9,93.7c15.5-4.8,30.3-11.1,45.6-16.6C64.6,73.2,75.8,69.7,87.3,67.4z"/>
	<path class="st1" d="M95.3,143.3c-8.2-4.9-16.3-10-25.3-13.5c-14.9-5.8-29.7-5-44.5,0.5c-6,2.2-11.8,4.7-17.6,7.2
		c-0.2,6.1-0.2,12.2,1.3,18.2c4.4,17.8,19.7,30.8,38.4,30.8c32.1,0,64.2,0,96.3,0c9.4,0,17.7-3,24.9-9.1c-8.3-2-16.3-5.2-24.2-8.5
		C127.6,161.7,111.3,152.8,95.3,143.3z"/>
	<path class="st1" d="M134.9,125.4c-13-6-25.5-13.1-38.4-19.3c-9.1-4.4-18.3-8.3-28-11.2c-12.8-3.8-25.3-3.2-37.6,2.2
		c-7.2,3.1-14.5,5.8-21.7,8.7c-0.4,0.2-0.9,0.3-1.3,0.4c0,6.1,0,12.1,0.1,18.2c5.6-1.9,10.9-4.4,16.5-6.3c9.3-3.1,18.8-4.8,28.7-4.3
		c10.1,0.5,19.7,3.4,28.7,7.9c11.8,5.9,22.9,13.1,34.3,19.6c14.8,8.5,29.9,16.4,46.1,22c4.9,1.7,9.8,3.2,14.9,4.1
		c1.6-1.8,2.3-4,3.2-6.2c3.2-7.6,3-15.7,2.7-23.7C166.1,137.2,150.2,132.5,134.9,125.4z"/>
	<path class="st2" d="M30.9,97.1c12.3-5.3,24.7-6,37.6-2.2c9.7,2.9,18.9,6.8,28,11.2c12.9,6.2,25.4,13.3,38.4,19.3
		c15.3,7.1,31.2,11.8,48.2,12.2c0-3.9,0-7.9,0-11.8c-8.9,0-17.5-1.5-26-4.1c-11.4-3.5-21.9-9-32.4-14.4c-8.7-4.5-17.4-8.9-26.2-13.2
		c-9.7-4.7-19.6-8.7-30.5-10.4c6.2-1.4,12.4-2.8,18.5-4.3c6.8-1.7,13.6-2.5,20.6-2.2c5.7,0.3,11.3,1.4,16.7,3.2
		c9.7,3.2,18.4,8.4,27.6,12.6c10.1,4.6,20.5,7.8,31.7,8.2c0-3.9,0-7.8,0-11.6c-7.2-0.3-14-2.3-20.7-4.7c-8.5-3.1-16.4-7.6-24.5-11.5
		c-16.2-7.9-33-9.5-50.6-5.9c-11.5,2.4-22.7,5.8-33.8,9.7C38.3,82.5,23.4,88.9,7.9,93.7c0,4.2,0,8.3,0,12.5c0.4-0.1,0.9-0.2,1.3-0.4
		C16.5,102.9,23.8,100.2,30.9,97.1z"/>
	<path class="st1" d="M123.8,80.4c-5.4-1.8-11-2.9-16.7-3.2c-7-0.3-13.8,0.5-20.6,2.2c-6.2,1.5-12.3,2.9-18.5,4.3
		c10.9,1.6,20.8,5.6,30.5,10.4c8.8,4.3,17.5,8.8,26.2,13.2c10.6,5.4,21,10.9,32.4,14.4c8.5,2.6,17.1,4.1,26,4.1
		c0.2-8.2,0.2-16.4,0-24.6c-11.2-0.3-21.6-3.6-31.7-8.2C142.2,88.8,133.5,83.6,123.8,80.4z"/>
	<path class="st2" d="M116.2,141.4c-11.4-6.6-22.5-13.7-34.3-19.6c-9.1-4.5-18.6-7.4-28.7-7.9c-9.8-0.5-19.3,1.2-28.7,4.3
		c-5.6,1.9-11,4.4-16.5,6.3c-0.2,4.4-0.1,8.8,0,13.2c5.8-2.6,11.7-5,17.6-7.2c14.8-5.5,29.6-6.3,44.5-0.5c8.9,3.5,17,8.6,25.3,13.5
		c16,9.5,32.3,18.4,49.4,25.6c7.9,3.3,15.8,6.5,24.2,8.5c3.4-2.8,6.3-6.1,8.3-10c-5.1-0.8-10-2.4-14.9-4.1
		C146.1,157.8,131.1,149.8,116.2,141.4z"/>
	<path d="M271.5,76.3c-2.7-3.8-6.2-6.5-10.6-7.9c-2.6-0.8-5.8-1.3-9.6-1.4h-26.8v62.2h26.8c9.4,0,16.4-3.9,20.9-11.6
		c3.3-5.7,5-12.8,5-21c0-3.3-0.4-6.7-1.2-10.3C275.1,82.8,273.6,79.4,271.5,76.3z M261.9,109.4c-2.4,6.1-6.7,9.1-12.9,9.1h-12V77.9
		h12c5.9,0,9.9,1.7,11.9,5.1c2,3.4,3,8.3,3,14.6C263.9,102.2,263.2,106.1,261.9,109.4z"/>
	<path d="M323.8,91c-2.1-3.1-4.7-5.4-8-6.8c-3.2-1.4-6.8-2.2-10.8-2.2c-6.7,0-12.2,2.1-16.5,6.4c-4.2,4.3-6.3,10.4-6.3,18.3
		c0,8.5,2.3,14.7,7,18.4c4.7,3.8,10.1,5.7,16.2,5.7c7.4,0,13.2-2.2,17.3-6.7c2.6-2.8,4.1-5.6,4.5-8.3H315c-0.7,1.4-1.5,2.4-2.5,3.2
		c-1.7,1.4-3.9,2.1-6.7,2.1c-2.6,0-4.8-0.6-6.6-1.7c-3-1.9-4.6-5.1-4.8-9.7h33.5c0.1-4-0.1-7-0.4-9.1C326.9,97,325.7,93.8,323.8,91z
		 M294.7,101.8c0.4-3,1.5-5.4,3.2-7.1c1.7-1.8,4.1-2.6,7.2-2.6c2.8,0,5.2,0.8,7.1,2.5c1.9,1.7,3,4.1,3.2,7.3H294.7z"/>
	<path d="M358.9,101.6c-7.2-1.6-11.4-2.7-12.6-3.3c-1.2-0.6-1.8-1.6-1.8-3c0-1.1,0.6-2.1,1.7-2.9c1.1-0.8,3-1.2,5.6-1.2
		c3.2,0,5.4,0.8,6.8,2.4c0.7,0.9,1.1,2.1,1.3,3.7h12c-0.5-5.6-2.6-9.6-6.2-11.9c-3.6-2.3-8.3-3.4-14.1-3.4c-6.1,0-10.8,1.5-14.1,4.6
		c-3.3,3.1-5,6.7-5,11c0,3.6,1.1,6.4,3.2,8.3c2.1,1.9,5.8,3.6,11.1,4.9c7.3,1.7,11.5,2.9,12.6,3.6c1.1,0.7,1.7,1.7,1.7,3.1
		c0,1.4-0.7,2.5-2.1,3.2c-1.4,0.7-3.3,1.1-5.7,1.1c-4,0-6.8-0.8-8.3-2.4c-0.8-0.9-1.4-2.4-1.7-4.6h-12.2c0,4.7,1.7,8.6,5.2,11.7
		c3.5,3.1,8.8,4.6,16.1,4.6c7.1,0,12.4-1.4,15.8-4.3c3.4-2.9,5.1-6.6,5.1-11.2c0-3.5-1.2-6.3-3.5-8.7
		C367.3,104.5,363.7,102.8,358.9,101.6z"/>
	<path d="M420,91c-2.1-3.1-4.7-5.4-8-6.8c-3.2-1.4-6.8-2.2-10.8-2.2c-6.7,0-12.2,2.1-16.5,6.4c-4.2,4.3-6.3,10.4-6.3,18.3
		c0,8.5,2.3,14.7,7,18.4s10.1,5.7,16.2,5.7c7.4,0,13.2-2.2,17.3-6.7c2.7-2.8,4.1-5.6,4.5-8.3h-12.3c-0.7,1.4-1.5,2.4-2.5,3.2
		c-1.7,1.4-3.9,2.1-6.7,2.1c-2.6,0-4.8-0.6-6.6-1.7c-3-1.9-4.6-5.1-4.8-9.7h33.5c0.1-4-0.1-7-0.4-9.1C423.1,97,421.9,93.8,420,91z
		 M390.8,101.8c0.4-3,1.5-5.4,3.2-7.1c1.7-1.8,4.1-2.6,7.2-2.6c2.8,0,5.2,0.8,7.1,2.5c1.9,1.7,3,4.1,3.2,7.3H390.8z"/>
	<path d="M455.2,82.2c-3.6,0-6.5,0.9-8.8,2.8c-1.4,1.1-3,3.2-4.9,6.3v-8H430v46h12.1v-22c0-3.7,0.5-6.4,1.4-8.2
		c1.7-3.2,4.9-4.7,9.8-4.7c0.4,0,0.8,0,1.4,0c0.6,0,1.3,0.1,2,0.2V82.3c-0.5,0-0.9,0-1-0.1C455.6,82.2,455.4,82.2,455.2,82.2z"/>
	<path d="M477.4,70.9h-11.9v12.8h-6.4v8.6h6.4v28.3c0,2.9,0.7,5,2,6.4c2.1,2.2,6,3.2,11.7,3l5.7-0.2v-9c-0.4,0-0.8,0-1.2,0.1
		c-0.4,0-0.8,0-1.2,0c-2.4,0-3.9-0.2-4.4-0.7c-0.5-0.5-0.7-1.6-0.7-3.5V92.3h7.5v-8.6h-7.5V70.9z"/>
	<path d="M530.5,91c-2.1-3.1-4.7-5.4-8-6.8c-3.2-1.4-6.8-2.2-10.8-2.2c-6.7,0-12.2,2.1-16.5,6.4c-4.2,4.3-6.3,10.4-6.3,18.3
		c0,8.5,2.3,14.7,7,18.4s10.1,5.7,16.2,5.7c7.4,0,13.2-2.2,17.3-6.7c2.7-2.8,4.1-5.6,4.5-8.3h-12.3c-0.7,1.4-1.5,2.4-2.5,3.2
		c-1.7,1.4-3.9,2.1-6.7,2.1c-2.6,0-4.8-0.6-6.6-1.7c-3-1.9-4.6-5.1-4.8-9.7h33.5c0.1-4-0.1-7-0.4-9.1C533.7,97,532.4,93.8,530.5,91z
		 M501.4,101.8c0.4-3,1.5-5.4,3.2-7.1c1.7-1.8,4.1-2.6,7.2-2.6c2.8,0,5.2,0.8,7.1,2.5c1.9,1.7,3,4.1,3.2,7.3H501.4z"/>
	<path d="M561.2,92.4c2.8,0,5,0.9,6.3,2.8c0.9,1.4,1.5,2.9,1.7,4.6h12.3c-0.7-6.6-2.9-11.1-6.5-13.7c-3.7-2.6-8.4-3.9-14.2-3.9
		c-6.8,0-12.1,2.2-16,6.6c-3.9,4.4-5.8,10.5-5.8,18.4c0,7,1.7,12.7,5.2,17.1c3.5,4.4,8.9,6.6,16.4,6.6c7.4,0,13-2.6,16.8-7.9
		c2.4-3.3,3.7-6.7,4-10.4h-12.3c-0.3,2.4-1,4.4-2.2,5.9c-1.2,1.5-3.2,2.3-6,2.3c-4,0-6.7-1.9-8.1-5.7c-0.8-2-1.2-4.8-1.2-8.1
		c0-3.5,0.4-6.4,1.2-8.5C554.3,94.4,557.1,92.4,561.2,92.4z"/>
	<path d="M627.9,93.4c-0.3-1.8-1.1-3.6-2.3-5.3c-1.5-2-3.4-3.5-5.7-4.5c-2.3-1-4.9-1.5-7.7-1.5c-2.5,0-4.9,0.5-7.2,1.6
		c-2.3,1.1-4.3,2.9-6,5.6v-22h-12v62h12v-24.9c0-3.9,0.8-7,2.5-9.1c1.6-2.1,4-3.2,7.2-3.2c3,0,5.1,1.1,6.2,3.2
		c0.8,1.5,1.3,3.5,1.3,6v28h12.3v-27C628.3,98.2,628.2,95.2,627.9,93.4z"/>
</g>
</svg>
