<?xml version="1.0" encoding="utf-8"?>
<!-- Generator: Adobe Illustrator 24.1.1, SVG Export Plug-In . SVG Version: 6.00 Build 0)  -->
<svg version="1.1" id="Camada_1" xmlns="http://www.w3.org/2000/svg" xmlns:xlink="http://www.w3.org/1999/xlink" x="0px" y="0px"
	 viewBox="0 0 16 16" style="enable-background:new 0 0 16 16;" xml:space="preserve">
<style type="text/css">
	.st0{fill:#FECE2A;}
	.st1{fill:#151515;}
</style>
<g>
	<path class="st0" d="M7.3,5.4c1.4-0.3,2.8-0.2,4.1,0.5c0.7,0.3,1.3,0.7,2,0.9c0.5,0.2,1.1,0.4,1.7,0.4c0-1,0-2,0-2.9
		c0-0.2,0-0.5-0.1-0.7C14.7,2.1,13.4,1,11.9,1C9.3,1,6.7,1,4.1,1C3.8,1,3.5,1,3.2,1.1C1.9,1.6,1,2.7,0.9,4.1c0,1.1,0,2.3,0,3.4
		c1.2-0.4,2.4-0.9,3.7-1.3C5.5,5.8,6.4,5.6,7.3,5.4z"/>
	<path class="st0" d="M8,11.5c-0.7-0.4-1.3-0.8-2-1.1c-1.2-0.5-2.4-0.4-3.6,0c-0.5,0.2-1,0.4-1.4,0.6c0,0.5,0,1,0.1,1.5
		C1.4,13.9,2.6,15,4.1,15l7.8,0c0.8,0,1.4-0.2,2-0.7c-0.7-0.2-1.3-0.4-2-0.7C10.6,13,9.3,12.3,8,11.5z"/>
	<path class="st0" d="M15.1,11c-1.4,0-2.7-0.4-3.9-1C10.1,9.6,9.1,9,8.1,8.5C7.3,8.2,6.6,7.8,5.8,7.6c-1-0.3-2-0.3-3,0.2
		C2.2,8,1.6,8.2,1,8.5c0,0-0.1,0-0.1,0c0,0.5,0,1,0,1.5c0.5-0.2,0.9-0.4,1.3-0.5C3,9.2,3.8,9.1,4.6,9.1c0.8,0,1.6,0.3,2.3,0.6
		c1,0.5,1.8,1.1,2.8,1.6c1.2,0.7,2.4,1.3,3.7,1.8c0.4,0.1,0.8,0.3,1.2,0.3c0.1-0.1,0.2-0.3,0.3-0.5C15.1,12.3,15.1,11.7,15.1,11z"/>
	<path class="st1" d="M2.8,7.8c1-0.4,2-0.5,3-0.2c0.8,0.2,1.5,0.5,2.3,0.9c1,0.5,2.1,1.1,3.1,1.6c1.2,0.6,2.5,1,3.9,1
		c0-0.3,0-0.6,0-1c-0.7,0-1.4-0.1-2.1-0.3c-0.9-0.3-1.8-0.7-2.6-1.2C9.7,8.2,8.9,7.9,8.2,7.5C7.5,7.1,6.7,6.8,5.8,6.7
		c0.5-0.1,1-0.2,1.5-0.3c0.5-0.1,1.1-0.2,1.7-0.2c0.5,0,0.9,0.1,1.3,0.3c0.8,0.3,1.5,0.7,2.2,1c0.8,0.4,1.7,0.6,2.6,0.7
		c0-0.3,0-0.6,0-0.9c-0.6,0-1.1-0.2-1.7-0.4c-0.7-0.3-1.3-0.6-2-0.9c-1.3-0.6-2.7-0.8-4.1-0.5C6.4,5.6,5.5,5.8,4.6,6.2
		c-1.2,0.4-2.4,1-3.7,1.3c0,0.3,0,0.7,0,1c0,0,0.1,0,0.1,0C1.6,8.2,2.2,8,2.8,7.8z"/>
	<path class="st0" d="M10.3,6.4C9.8,6.3,9.4,6.2,8.9,6.2c-0.6,0-1.1,0-1.7,0.2c-0.5,0.1-1,0.2-1.5,0.3c0.9,0.1,1.7,0.5,2.5,0.8
		c0.7,0.3,1.4,0.7,2.1,1.1C11.2,9,12.1,9.5,13,9.8c0.7,0.2,1.4,0.3,2.1,0.3c0-0.7,0-1.3,0-2c-0.9,0-1.7-0.3-2.6-0.7
		C11.8,7.1,11.1,6.7,10.3,6.4z"/>
	<path class="st1" d="M9.7,11.4c-0.9-0.5-1.8-1.1-2.8-1.6C6.2,9.4,5.4,9.2,4.6,9.1C3.8,9.1,3,9.2,2.3,9.5C1.8,9.6,1.4,9.8,0.9,10
		c0,0.4,0,0.7,0,1.1c0.5-0.2,0.9-0.4,1.4-0.6c1.2-0.4,2.4-0.5,3.6,0c0.7,0.3,1.4,0.7,2,1.1c1.3,0.8,2.6,1.5,4,2.1
		c0.6,0.3,1.3,0.5,2,0.7c0.3-0.2,0.5-0.5,0.7-0.8c-0.4-0.1-0.8-0.2-1.2-0.3C12.1,12.7,10.9,12,9.7,11.4z"/>
</g>
</svg>
